<svg xmlns="http://www.w3.org/2000/svg" data-name="Layer 1" viewBox="0 0 512 640" x="0px" y="0px"><title>microphone</title><rect x="163.76" width="184.49" height="359.8" rx="92.24" ry="92.24"/><path d="M240.63,425.17v56.08h-61.5a15.37,15.37,0,1,0,0,30.75H332.87a15.37,15.37,0,1,0,0-30.75h-61.5V425.17c81.85-7.77,146.1-76.94,146.1-160.86V183a15.37,15.37,0,1,0-30.75,0v81.32c0,72.15-58.64,130.85-130.72,130.85s-130.72-58.7-130.72-130.85V183a15.37,15.37,0,1,0-30.75,0v81.32C94.53,348.22,158.77,417.39,240.63,425.17Z"/><text x="0" y="527" fill="#000000" font-size="5px" font-weight="bold" font-family="'Helvetica Neue', Helvetica, Arial-Unicode, Arial, Sans-serif">Created by i cons</text><text x="0" y="532" fill="#000000" font-size="5px" font-weight="bold" font-family="'Helvetica Neue', Helvetica, Arial-Unicode, Arial, Sans-serif">from the Noun Project</text></svg>